<?xml version="1.0" standalone="no"?><!DOCTYPE svg PUBLIC "-//W3C//DTD SVG 1.1//EN" "http://www.w3.org/Graphics/SVG/1.1/DTD/svg11.dtd"><svg t="1522053479086" class="icon" style="" viewBox="0 0 1030 1024" version="1.1" xmlns="http://www.w3.org/2000/svg" p-id="1116" xmlns:xlink="http://www.w3.org/1999/xlink" width="20.1171875" height="20"><defs><style type="text/css"></style></defs><path d="M121.6 460.8h345.6V134.4c0-64-51.2-121.6-121.6-121.6H121.6C51.2 12.8 0 70.4 0 134.4v211.2c0 64 51.2 115.2 121.6 115.2zM1024 345.6V134.4c0-64-51.2-121.6-121.6-121.6h-224c-64 0-121.6 51.2-121.6 121.6v332.8h345.6c70.4-6.4 121.6-57.6 121.6-121.6z m-339.2 665.6h230.4c64 0 115.2-51.2 115.2-121.6v-211.2c0-64-51.2-121.6-121.6-121.6H563.2v332.8c0 64 51.2 121.6 121.6 121.6z m-563.2 0h224c64 0 121.6-51.2 121.6-121.6V563.2H121.6c-64 0-121.6 51.2-121.6 121.6V896c0 57.6 51.2 115.2 121.6 115.2z" fill="#040000" p-id="1117"></path></svg>