<?xml version="1.0" standalone="no"?><!DOCTYPE svg PUBLIC "-//W3C//DTD SVG 1.1//EN" "http://www.w3.org/Graphics/SVG/1.1/DTD/svg11.dtd"><svg t="1522208790618" class="icon" style="" viewBox="0 0 1024 1024" version="1.1" xmlns="http://www.w3.org/2000/svg" p-id="2415" xmlns:xlink="http://www.w3.org/1999/xlink" width="20" height="20"><defs><style type="text/css"></style></defs><path d="M863.438 280.125h-704c-17.673 0-32 14.327-32 32v447.059c0 17.673 14.327 32 32 32h127.809c17.673 0 32-14.327 32-32V732.36h42.718v56.375h64V732.36h51.947v56.375h64V732.36h51.947v56.375h64V732.36h45.608v26.823c0 17.673 14.327 32 32 32h127.971c17.673 0 32-14.327 32-32V312.125c0-17.673-14.328-32-32-32z m-32 295.333h-33.559c-17.673 0-32 14.327-32 32s14.327 32 32 32h33.559v87.726h-63.971V700.36c0-17.673-14.327-32-32-32H287.246c-17.673 0-32 14.327-32 32v26.823h-63.809v-87.726h32.559c17.673 0 32-14.327 32-32s-14.327-32-32-32h-32.559V344.125h640v231.333z" fill="" p-id="2416"></path><path d="M256.477 395.557h80.279v140h-80.279zM400.89 395.557h80.279v140H400.89zM545.302 395.557h80.279v140h-80.279zM689.715 395.557h80.279v140h-80.279z" fill="" p-id="2417"></path></svg>